<svg xmlns="http://www.w3.org/2000/svg" version="1.1" xmlns:xlink="http://www.w3.org/1999/xlink" xmlns:svgjs="http://svgjs.dev/svgjs" width="1000" height="999" viewBox="0 0 1000 999"><g transform="matrix(1,0,0,1,-0.215743440233382,-0.21552769679306039)"><svg viewBox="0 0 343 343" data-background-color="#ffffff" preserveAspectRatio="xMidYMid meet" height="999" width="1000" xmlns="http://www.w3.org/2000/svg" xmlns:xlink="http://www.w3.org/1999/xlink"><g id="tight-bounds" transform="matrix(1,0,0,1,0.0740000000000407,0.07400000000001228)"><svg viewBox="0 0 342.85155851775386 342.85155851775386" height="342.85155851775386" width="342.85155851775386"><g><svg></svg></g><g><svg viewBox="0 0 342.85155851775386 342.85155851775386" height="342.85155851775386" width="342.85155851775386"><g><path d="M0 171.426c0-94.676 76.75-171.426 171.426-171.426 94.676 0 171.426 76.75 171.426 171.426 0 94.676-76.75 171.426-171.426 171.426-94.676 0-171.426-76.75-171.426-171.426zM171.426 338.064c92.032 0 166.638-74.607 166.638-166.638 0-92.032-74.607-166.638-166.638-166.639-92.032 0-166.638 74.607-166.639 166.639 0 92.032 74.607 166.638 166.639 166.638z" data-fill-palette-color="tertiary" fill="#ed1703" stroke="transparent"></path><ellipse rx="164.56874808852186" ry="164.56874808852186" cx="171.42577925887693" cy="171.42577925887693" fill="#ed1703" stroke="transparent" stroke-width="0" fill-opacity="1" data-fill-palette-color="tertiary"></ellipse></g><g transform="matrix(1,0,0,1,64.84655864529837,144.88291944693876)"><svg viewBox="0 0 213.1584412271571 53.085719623876344" height="53.085719623876344" width="213.1584412271571"><g><svg viewBox="0 0 213.1584412271571 53.085719623876344" height="53.085719623876344" width="213.1584412271571"><g><svg viewBox="0 0 213.1584412271571 53.085719623876344" height="53.085719623876344" width="213.1584412271571"><g><svg viewBox="0 0 213.1584412271571 53.085719623876344" height="53.085719623876344" width="213.1584412271571"><g id="textblocktransform"><svg viewBox="0 0 213.1584412271571 53.085719623876344" height="53.085719623876344" width="213.1584412271571" id="textblock"><g><svg viewBox="0 0 213.1584412271571 53.085719623876344" height="53.085719623876344" width="213.1584412271571"><g transform="matrix(1,0,0,1,0,0)"><svg width="213.1584412271571" viewBox="5.25 -35.400001525878906 143.74000549316406 35.80000305175781" height="53.085719623876344" data-palette-color="#ffffff"><path d="M30.35-35L35.35-35 35.35 0 30.35 0 30.35-15.6 10.25-15.6 10.25 0 5.25 0 5.25-35 10.25-35 10.25-19.95 30.35-19.95 30.35-35ZM70.95-35L75.95-35 75.95 0 70.95 0 70.95-15.6 50.85-15.6 50.85 0 45.85 0 45.85-35 50.85-35 50.85-19.95 70.95-19.95 70.95-35ZM102.1 0.4Q96.85 0.4 92.62-1.93 88.4-4.25 86-8.33 83.6-12.4 83.6-17.5L83.6-17.5Q83.6-22.6 86-26.68 88.4-30.75 92.65-33.08 96.9-35.4 102.15-35.4L102.15-35.4Q106.25-35.4 109.65-34.02 113.05-32.65 115.45-29.95L115.45-29.95 112.2-26.8Q108.25-30.95 102.35-30.95L102.35-30.95Q98.45-30.95 95.3-29.2 92.15-27.45 90.37-24.38 88.6-21.3 88.6-17.5L88.6-17.5Q88.6-13.7 90.37-10.63 92.15-7.55 95.3-5.8 98.45-4.05 102.35-4.05L102.35-4.05Q108.2-4.05 112.2-8.25L112.2-8.25 115.45-5.1Q113.05-2.4 109.62-1 106.2 0.4 102.1 0.4L102.1 0.4ZM126.44-4.35L148.99-4.35 148.99 0 119.74 0 119.74-3.1 129.79-15.75 122.74-15.75 122.74-19.9 133.09-19.9 141.59-30.65 119.94-30.65 119.94-35 148.24-35 148.24-31.95 138.64-19.8 145.14-19.8 145.14-15.65 135.34-15.65 126.44-4.35Z" opacity="1" transform="matrix(1,0,0,1,0,0)" fill="#ffffff" class="undefined-text-0" data-fill-palette-color="quaternary" id="text-0"></path></svg></g></svg></g></svg></g></svg></g><g></g></svg></g></svg></g></svg></g></svg></g><defs></defs></svg><rect width="342.85155851775386" height="342.85155851775386" fill="none" stroke="none" visibility="hidden"></rect></g></svg></g></svg>